<svg width="82" height="33" viewBox="0 0 82 33" fill="none" xmlns="http://www.w3.org/2000/svg">
<g filter="url(#filter0_d_6_280)">
<path d="M6.96892 25.4494H3.14209L6.96892 28.427V25.4494Z" fill="#C1555D"/>
<path d="M3.14209 9.47272C3.14209 5.7985 6.12064 2.81995 9.79487 2.81995H75.7051C77.8844 2.81995 79.1397 5.29617 77.8516 7.054L75.5445 10.2023C73.8291 12.5432 73.8291 15.7261 75.5445 18.067L77.8516 21.2153C79.1397 22.9731 77.8844 25.4493 75.7051 25.4493H3.14209V9.47272Z" fill="url(#paint0_linear_6_280)"/>
<path d="M16.0038 17.9759C17.9718 17.9759 19.2798 16.8599 19.2798 15.1079C19.2798 13.4279 18.0198 12.4919 16.5558 12.4919C15.8838 12.4919 15.3558 12.7079 14.9478 12.9959L14.9958 11.1719H18.8238V9.57595H13.3638L13.2438 14.0279L14.4318 14.5079C14.8758 14.1719 15.4038 13.9679 16.0278 13.9679C16.9278 13.9679 17.5158 14.4479 17.5158 15.1679C17.5158 15.8759 16.9398 16.4279 16.0158 16.4279C15.2238 16.4279 14.4678 16.0439 13.8558 15.4559L12.8118 16.7039C13.5798 17.4719 14.6238 17.9759 16.0038 17.9759ZM24.0338 17.9639C26.2058 17.9639 27.7418 16.1999 27.7418 13.6919C27.7418 11.1959 26.2058 9.43195 24.0338 9.43195C21.8618 9.43195 20.3378 11.1959 20.3378 13.6919C20.3378 16.1999 21.8618 17.9639 24.0338 17.9639ZM24.0338 16.3559C22.9298 16.3559 22.1498 15.2399 22.1498 13.6919C22.1498 12.1439 22.9298 11.0399 24.0338 11.0399C25.1498 11.0399 25.9178 12.1439 25.9178 13.6919C25.9178 15.2399 25.1498 16.3559 24.0338 16.3559ZM30.7664 13.7159C31.9904 13.7159 32.8304 12.7919 32.8304 11.6039C32.8304 10.4399 32.0264 9.49195 30.7784 9.49195C29.5424 9.49195 28.7144 10.4279 28.7144 11.6159C28.7144 12.7919 29.5424 13.7159 30.7664 13.7159ZM29.7944 17.8199H31.0664L36.8024 9.57595H35.5304L29.7944 17.8199ZM30.7784 12.6839C30.2864 12.6839 29.9024 12.2519 29.9024 11.6039C29.9024 10.9559 30.2624 10.5359 30.7664 10.5359C31.2824 10.5359 31.6544 10.9679 31.6544 11.6039C31.6544 12.2639 31.2824 12.6839 30.7784 12.6839ZM35.8064 17.9519C37.0064 17.9519 37.8584 17.0279 37.8584 15.8399C37.8584 14.6759 37.0424 13.7279 35.8064 13.7279C34.5824 13.7279 33.7424 14.6639 33.7424 15.8399C33.7424 17.0159 34.5704 17.9519 35.8064 17.9519ZM35.8064 16.9079C35.2904 16.9079 34.9184 16.4759 34.9184 15.8399C34.9184 15.1799 35.2784 14.7599 35.8064 14.7599C36.2984 14.7599 36.6824 15.1919 36.6824 15.8399C36.6824 16.4879 36.3224 16.9079 35.8064 16.9079ZM46.537 17.9639C48.925 17.9639 50.917 16.0079 50.917 13.6919C50.917 11.3759 48.925 9.43195 46.537 9.43195C44.173 9.43195 42.157 11.3759 42.157 13.6919C42.157 16.0079 44.173 17.9639 46.537 17.9639ZM46.537 16.3559C45.157 16.3559 43.981 15.1319 43.981 13.6919C43.981 12.2639 45.157 11.0399 46.537 11.0399C47.929 11.0399 49.105 12.2639 49.105 13.6919C49.105 15.1319 47.929 16.3559 46.537 16.3559ZM58.5672 11.1719V9.57595H52.2192V17.8199H53.9952V14.5559H58.1352V12.9599H53.9952V11.1719H58.5672ZM66.1727 11.1719V9.57595H59.8247V17.8199H61.6007V14.5559H65.7407V12.9599H61.6007V11.1719H66.1727Z" fill="white"/>
</g>
<defs>
<filter id="filter0_d_6_280" x="0.480979" y="1.48939" width="80.5511" height="30.9292" filterUnits="userSpaceOnUse" color-interpolation-filters="sRGB">
<feFlood flood-opacity="0" result="BackgroundImageFix"/>
<feColorMatrix in="SourceAlpha" type="matrix" values="0 0 0 0 0 0 0 0 0 0 0 0 0 0 0 0 0 0 127 0" result="hardAlpha"/>
<feOffset dy="1.33056"/>
<feGaussianBlur stdDeviation="1.33056"/>
<feColorMatrix type="matrix" values="0 0 0 0 0 0 0 0 0 0 0 0 0 0 0 0 0 0 0.1 0"/>
<feBlend mode="normal" in2="BackgroundImageFix" result="effect1_dropShadow_6_280"/>
<feBlend mode="normal" in="SourceGraphic" in2="effect1_dropShadow_6_280" result="shape"/>
</filter>
<linearGradient id="paint0_linear_6_280" x1="79.3332" y1="2.81995" x2="14.358" y2="55.9108" gradientUnits="userSpaceOnUse">
<stop stop-color="#FF9970"/>
<stop offset="0.989583" stop-color="#EB5162"/>
</linearGradient>
</defs>
</svg>
