<svg width="10" height="10" viewBox="0 0 10 10" fill="none" xmlns="http://www.w3.org/2000/svg">
<path fill-rule="evenodd" clip-rule="evenodd" d="M5.00004 0.833527C2.6987 0.833527 0.833374 2.69885 0.833374 5.00019C0.833374 7.30153 2.6987 9.16686 5.00004 9.16686C7.30138 9.16686 9.16671 7.30153 9.16671 5.00019C9.16671 2.69885 7.30138 0.833527 5.00004 0.833527ZM4.99998 1.45853C6.95614 1.45853 8.54165 3.04403 8.54165 5.00019C8.54165 6.95635 6.95614 8.54186 4.99998 8.54186C3.04382 8.54186 1.45832 6.95635 1.45832 5.00019C1.45832 3.04403 3.04382 1.45853 4.99998 1.45853ZM5.16871 3.22711C5.14802 3.07458 5.01727 2.95702 4.85906 2.95702C4.68647 2.95702 4.54656 3.09693 4.54656 3.26952V5.2891L4.55004 5.33566C4.56385 5.42735 4.61795 5.50915 4.69896 5.55747L6.2698 6.49456L6.30767 6.51383C6.44927 6.5742 6.61722 6.52215 6.69827 6.38628L6.71754 6.3484C6.77792 6.20681 6.72586 6.03886 6.58999 5.95781L5.1714 5.11122L5.17156 3.26952L5.16871 3.22711Z" fill="#F9545B"/>
</svg>
